<svg width="324" height="343" viewBox="0 0 324 343" fill="none" xmlns="http://www.w3.org/2000/svg">
  <g filter="url(#filter0_ddddd_64_17521)">
    <g filter="url(#filter1_ii_64_17521)">
      <rect x="12" y="2" width="300" height="300" rx="50" fill="black" />
      <g filter="url(#filter2_f_64_17521)">
        <path
          d="M293.056 34.291C293.056 34.291 299.004 41.0121 299.004 53.1077C299.004 65.2034 299.177 239.1 299.177 252.072C299.177 265.044 293.056 269.709 293.056 269.709"
          stroke="url(#paint0_linear_64_17521)" stroke-opacity="0.75" stroke-width="3" />
      </g>
      <g filter="url(#filter3_f_64_17521)">
        <path
          d="M244.803 19.9996C279.132 22.946 271.555 28.881 271.555 28.881C271.555 28.881 271.262 29.4729 265.968 28.9856C260.674 28.4984 241.149 24.1408 239.43 23.679C237.71 23.2172 225.528 20.9147 218.291 19.742C210.588 18.4937 211.91 18.1991 211.91 18.1991C211.91 18.1991 210.475 17.0531 244.803 19.9996Z"
          fill="url(#paint1_linear_64_17521)" />
      </g>
      <path
        d="M87 198.598L128.952 79.4265C128.952 79.4265 163.155 79.4265 183.405 79.4265C200.543 79.4265 224.284 104.793 233.098 127.705M87 198.598L102.106 223.035C102.106 223.035 187.408 230.797 209.789 211.455C232.17 192.113 239.467 164.705 236.294 139.772C235.806 135.941 234.698 131.863 233.098 127.705M87 198.598C87 198.598 157.06 200.646 180.372 198.598C203.683 196.551 212.838 150.785 212.838 150.785H187.408M187.408 150.785C187.408 150.785 180.869 172.719 177.963 175.044C176.394 176.3 162.654 175.842 146.216 175.842M187.408 150.785H154.713M219.09 103.696H145.976L121.032 175.842C121.032 175.842 133.942 175.537 146.216 175.842M233.098 127.705H162.415L154.713 150.785M146.216 175.842L154.713 150.785"
        stroke="url(#paint2_linear_64_17521)" stroke-width="5" />
    </g>
    <g filter="url(#filter4_f_64_17521)">
      <path
        d="M294.319 273.841L276.49 289.825C276.49 289.825 282.289 290.427 288.216 285.312C294.144 280.197 294.319 273.841 294.319 273.841Z"
        fill="url(#paint3_linear_64_17521)" />
    </g>
    <g filter="url(#filter5_f_64_17521)">
      <path
        d="M52.3687 292.714C38.2446 282.899 31.0342 276.444 19.5652 263.062C19.5652 263.062 22.9911 271.427 31.6515 280.088C40.312 288.748 52.3687 292.714 52.3687 292.714Z"
        fill="url(#paint4_linear_64_17521)" />
    </g>
    <g filter="url(#filter6_f_64_17521)">
      <path
        d="M39.03 22.8172C39.03 22.8172 49.6611 9.9342 86.8657 9.9342C124.07 9.9342 202.439 10.3905 236.671 10.3905C270.902 10.3906 284.97 22.8172 284.97 22.8172"
        stroke="url(#paint5_linear_64_17521)" stroke-width="3" />
    </g>
  </g>
  <defs>
    <filter id="filter0_ddddd_64_17521" x="0" y="0" width="324" height="343" filterUnits="userSpaceOnUse"
      color-interpolation-filters="sRGB">
      <feFlood flood-opacity="0" result="BackgroundImageFix" />
      <feColorMatrix in="SourceAlpha" type="matrix" values="0 0 0 0 0 0 0 0 0 0 0 0 0 0 0 0 0 0 127 0"
        result="hardAlpha" />
      <feOffset />
      <feColorMatrix type="matrix" values="0 0 0 0 1 0 0 0 0 1 0 0 0 0 1 0 0 0 0.12 0" />
      <feBlend mode="normal" in2="BackgroundImageFix" result="effect1_dropShadow_64_17521" />
      <feColorMatrix in="SourceAlpha" type="matrix" values="0 0 0 0 0 0 0 0 0 0 0 0 0 0 0 0 0 0 127 0"
        result="hardAlpha" />
      <feOffset dy="2" />
      <feGaussianBlur stdDeviation="2" />
      <feColorMatrix type="matrix" values="0 0 0 0 1 0 0 0 0 1 0 0 0 0 1 0 0 0 0.11 0" />
      <feBlend mode="normal" in2="effect1_dropShadow_64_17521" result="effect2_dropShadow_64_17521" />
      <feColorMatrix in="SourceAlpha" type="matrix" values="0 0 0 0 0 0 0 0 0 0 0 0 0 0 0 0 0 0 127 0"
        result="hardAlpha" />
      <feOffset dy="7" />
      <feGaussianBlur stdDeviation="3.5" />
      <feColorMatrix type="matrix" values="0 0 0 0 1 0 0 0 0 1 0 0 0 0 1 0 0 0 0.1 0" />
      <feBlend mode="normal" in2="effect2_dropShadow_64_17521" result="effect3_dropShadow_64_17521" />
      <feColorMatrix in="SourceAlpha" type="matrix" values="0 0 0 0 0 0 0 0 0 0 0 0 0 0 0 0 0 0 127 0"
        result="hardAlpha" />
      <feOffset dy="16" />
      <feGaussianBlur stdDeviation="5" />
      <feColorMatrix type="matrix" values="0 0 0 0 1 0 0 0 0 1 0 0 0 0 1 0 0 0 0.06 0" />
      <feBlend mode="normal" in2="effect3_dropShadow_64_17521" result="effect4_dropShadow_64_17521" />
      <feColorMatrix in="SourceAlpha" type="matrix" values="0 0 0 0 0 0 0 0 0 0 0 0 0 0 0 0 0 0 127 0"
        result="hardAlpha" />
      <feOffset dy="29" />
      <feGaussianBlur stdDeviation="6" />
      <feColorMatrix type="matrix" values="0 0 0 0 1 0 0 0 0 1 0 0 0 0 1 0 0 0 0.02 0" />
      <feBlend mode="normal" in2="effect4_dropShadow_64_17521" result="effect5_dropShadow_64_17521" />
      <feBlend mode="normal" in="SourceGraphic" in2="effect5_dropShadow_64_17521" result="shape" />
    </filter>
    <filter id="filter1_ii_64_17521" x="2" y="2" width="330" height="300" filterUnits="userSpaceOnUse"
      color-interpolation-filters="sRGB">
      <feFlood flood-opacity="0" result="BackgroundImageFix" />
      <feBlend mode="normal" in="SourceGraphic" in2="BackgroundImageFix" result="shape" />
      <feColorMatrix in="SourceAlpha" type="matrix" values="0 0 0 0 0 0 0 0 0 0 0 0 0 0 0 0 0 0 127 0"
        result="hardAlpha" />
      <feOffset dx="20" />
      <feGaussianBlur stdDeviation="11.5" />
      <feComposite in2="hardAlpha" operator="arithmetic" k2="-1" k3="1" />
      <feColorMatrix type="matrix" values="0 0 0 0 0 0 0 0 0 0 0 0 0 0 0 0 0 0 1 0" />
      <feBlend mode="normal" in2="shape" result="effect1_innerShadow_64_17521" />
      <feColorMatrix in="SourceAlpha" type="matrix" values="0 0 0 0 0 0 0 0 0 0 0 0 0 0 0 0 0 0 127 0"
        result="hardAlpha" />
      <feOffset dx="-10" />
      <feGaussianBlur stdDeviation="5" />
      <feComposite in2="hardAlpha" operator="arithmetic" k2="-1" k3="1" />
      <feColorMatrix type="matrix" values="0 0 0 0 0 0 0 0 0 0 0 0 0 0 0 0 0 0 1 0" />
      <feBlend mode="normal" in2="effect1_innerShadow_64_17521" result="effect2_innerShadow_64_17521" />
    </filter>
    <filter id="filter2_f_64_17521" x="289.93" y="31.298" width="12.7468" height="241.603" filterUnits="userSpaceOnUse"
      color-interpolation-filters="sRGB">
      <feFlood flood-opacity="0" result="BackgroundImageFix" />
      <feBlend mode="normal" in="SourceGraphic" in2="BackgroundImageFix" result="shape" />
      <feGaussianBlur stdDeviation="1" result="effect1_foregroundBlur_64_17521" />
    </filter>
    <filter id="filter3_f_64_17521" x="209.823" y="15.9797" width="64.4421" height="15.1984"
      filterUnits="userSpaceOnUse" color-interpolation-filters="sRGB">
      <feFlood flood-opacity="0" result="BackgroundImageFix" />
      <feBlend mode="normal" in="SourceGraphic" in2="BackgroundImageFix" result="shape" />
      <feGaussianBlur stdDeviation="1" result="effect1_foregroundBlur_64_17521" />
    </filter>
    <filter id="filter4_f_64_17521" x="275.49" y="272.841" width="19.8296" height="18.0065" filterUnits="userSpaceOnUse"
      color-interpolation-filters="sRGB">
      <feFlood flood-opacity="0" result="BackgroundImageFix" />
      <feBlend mode="normal" in="SourceGraphic" in2="BackgroundImageFix" result="shape" />
      <feGaussianBlur stdDeviation="0.5" result="effect1_foregroundBlur_64_17521" />
    </filter>
    <filter id="filter5_f_64_17521" x="18.5652" y="262.062" width="34.8035" height="31.6523"
      filterUnits="userSpaceOnUse" color-interpolation-filters="sRGB">
      <feFlood flood-opacity="0" result="BackgroundImageFix" />
      <feBlend mode="normal" in="SourceGraphic" in2="BackgroundImageFix" result="shape" />
      <feGaussianBlur stdDeviation="0.5" result="effect1_foregroundBlur_64_17521" />
    </filter>
    <filter id="filter6_f_64_17521" x="35.8748" y="6.4342" width="252.087" height="19.5096" filterUnits="userSpaceOnUse"
      color-interpolation-filters="sRGB">
      <feFlood flood-opacity="0" result="BackgroundImageFix" />
      <feBlend mode="normal" in="SourceGraphic" in2="BackgroundImageFix" result="shape" />
      <feGaussianBlur stdDeviation="1" result="effect1_foregroundBlur_64_17521" />
    </filter>
    <linearGradient id="paint0_linear_64_17521" x1="299.177" y1="134.316" x2="293.056" y2="134.316"
      gradientUnits="userSpaceOnUse">
      <stop stop-color="white" />
      <stop offset="1" stop-color="white" stop-opacity="0" />
    </linearGradient>
    <linearGradient id="paint1_linear_64_17521" x1="272.324" y1="26.603" x2="211.539" y2="22.6973"
      gradientUnits="userSpaceOnUse">
      <stop stop-color="#D9D9D9" />
      <stop offset="1" stop-color="#D9D9D9" stop-opacity="0" />
    </linearGradient>
    <linearGradient id="paint2_linear_64_17521" x1="128.644" y1="88.4119" x2="216.651" y2="224.573"
      gradientUnits="userSpaceOnUse">
      <stop stop-color="white" />
      <stop offset="1" stop-color="white" stop-opacity="0" />
    </linearGradient>
    <linearGradient id="paint3_linear_64_17521" x1="291.619" y1="286.12" x2="286.938" y2="280.794"
      gradientUnits="userSpaceOnUse">
      <stop stop-color="white" />
      <stop offset="1" stop-color="white" stop-opacity="0" />
    </linearGradient>
    <linearGradient id="paint4_linear_64_17521" x1="30.7824" y1="285.489" x2="30.7824" y2="266.835"
      gradientUnits="userSpaceOnUse">
      <stop stop-color="white" />
      <stop offset="1" stop-color="white" stop-opacity="0" />
    </linearGradient>
    <linearGradient id="paint5_linear_64_17521" x1="158.605" y1="13.6359" x2="158.605" y2="22.8173"
      gradientUnits="userSpaceOnUse">
      <stop stop-color="white" />
      <stop offset="1" stop-color="white" stop-opacity="0" />
    </linearGradient>
  </defs>
</svg>